<svg version="1.1" xmlns="http://www.w3.org/2000/svg" viewBox="-2302.941968841553 -1195.0080444335938 9479.134251708983 2446.5921112060546"><desc>Created with Snap</desc><defs></defs><g><g transform="matrix(30.5365,0,0,30.5365,-2117.8881,-948.8811)"><title>Accounting-calculator-math-Finance</title><g><path d="M5,62H41a1,1,0,0,0,1-1V46h6v7a.991.991,0,0,0,.07.349l-.007,0,3,8a1,1,0,0,0,1.874,0l3-8-.007,0A.991.991,0,0,0,56,53V20a2,2,0,0,1,2,2V35h2V22a4,4,0,0,0-4-4V15a1,1,0,0,0-1-1H53V11h5a1,1,0,0,0,1-1V6a4,4,0,0,0-4-4H23a4,4,0,0,0-4,4v7H5a1,1,0,0,0-1,1V61A1,1,0,0,0,5,62ZM50,24h4V52H50Zm2,34.152L50.443,54h3.114ZM54,22H50V20h4Zm0-4H50V16h4ZM57,6V9H53V6a2,2,0,0,1,4,0ZM21,6a2,2,0,0,1,2-2H51.556A3.959,3.959,0,0,0,51,6v8H49a1,1,0,0,0-1,1V44H42V14a1,1,0,0,0-1-1H21ZM6,15H40V60H6Z" fill="#00203f" style=""></path><path d="M36,18H10a1,1,0,0,0-1,1v6a1,1,0,0,0,1,1H36a1,1,0,0,0,1-1V19A1,1,0,0,0,36,18Zm-1,6H11V20H35Z" fill="#00203f" style=""></path><path d="M16,29H10a1,1,0,0,0-1,1v6a1,1,0,0,0,1,1h6a1,1,0,0,0,1-1V30A1,1,0,0,0,16,29Zm-1,6H11V31h4Z" fill="#00203f" style=""></path><path d="M26,29H20a1,1,0,0,0-1,1v6a1,1,0,0,0,1,1h6a1,1,0,0,0,1-1V30A1,1,0,0,0,26,29Zm-1,6H21V31h4Z" fill="#00203f" style=""></path><path d="M36,29H30a1,1,0,0,0-1,1v6a1,1,0,0,0,1,1h6a1,1,0,0,0,1-1V30A1,1,0,0,0,36,29Zm-1,6H31V31h4Z" fill="#00203f" style=""></path><path d="M16,39H10a1,1,0,0,0-1,1v6a1,1,0,0,0,1,1h6a1,1,0,0,0,1-1V40A1,1,0,0,0,16,39Zm-1,6H11V41h4Z" fill="#00203f" style=""></path><path d="M26,39H20a1,1,0,0,0-1,1v6a1,1,0,0,0,1,1h6a1,1,0,0,0,1-1V40A1,1,0,0,0,26,39Zm-1,6H21V41h4Z" fill="#00203f" style=""></path><path d="M16,49H10a1,1,0,0,0-1,1v6a1,1,0,0,0,1,1h6a1,1,0,0,0,1-1V50A1,1,0,0,0,16,49Zm-1,6H11V51h4Z" fill="#00203f" style=""></path><path d="M26,49H20a1,1,0,0,0-1,1v6a1,1,0,0,0,1,1h6a1,1,0,0,0,1-1V50A1,1,0,0,0,26,49Zm-1,6H21V51h4Z" fill="#00203f" style=""></path><path d="M36,39H30a1,1,0,0,0-1,1V56a1,1,0,0,0,1,1h6a1,1,0,0,0,1-1V40A1,1,0,0,0,36,39ZM35,55H31V41h4Z" fill="#00203f" style=""></path></g><desc>Created with Snap</desc><defs></defs></g><g><g transform="matrix(1.024,0,0,-1.024,0,0)"><path d="M242 -8Q125 -8 73 50Q21 108 21 237L21 321L190 321L190 214Q190 150 231 150Q254 150 263 163Q272 177 272 209Q272 251 262 278Q252 306 236 324Q221 343 181 382L107 456Q21 540 21 642Q21 752 71 809Q122 867 219 867Q335 867 386 805Q437 744 437 613L262 613L261 672Q261 689 251 699Q242 709 225 709Q205 709 195 698Q185 687 185 668Q185 626 233 581L333 485Q368 451 391 420Q414 390 428 348Q442 307 442 250Q442 123 395 57Q349 -8 242 -8ZM647 -8Q578 -8 552 21Q526 50 526 114L526 571L477 571L477 704L526 704L526 859L696 859L696 704L746 704L746 571L696 571L696 160Q696 141 699 132Q702 123 715 123Q725 123 734 124Q743 125 746 125L746 5Q731 1 702 -4Q674 -8 647 -8ZM934 -8Q849 -8 817 48Q786 105 786 210Q786 296 808 342Q831 388 871 409Q911 431 993 457L1041 473L1041 475L1041 548Q1041 577 1029 592Q1018 608 1002 608Q988 608 977 595Q967 582 967 560L967 516L797 516L797 540Q797 648 847 694Q898 740 1012 740Q1103 740 1160 692Q1217 645 1217 558L1217 0L1043 0L1043 87Q1030 42 1001 17Q973 -8 934 -8ZM1003 128Q1023 128 1031 144Q1040 161 1040 185L1040 389Q1001 374 982 351Q964 328 964 287L964 193Q964 128 1003 128ZM1485 -8Q1268 -8 1268 212L1269 270L1444 270L1445 184Q1445 158 1455 144Q1465 131 1488 131Q1523 131 1523 188Q1523 230 1506 254Q1490 278 1454 305L1361 377Q1313 414 1292 453Q1271 493 1271 565Q1271 621 1300 660Q1330 700 1379 720Q1428 740 1488 740Q1701 740 1701 528L1701 514L1520 514L1520 542Q1520 568 1511 586Q1503 605 1483 605Q1465 605 1455 594Q1446 584 1446 566Q1446 526 1477 504L1585 425Q1643 382 1674 331Q1705 281 1705 204Q1705 102 1647 47Q1589 -8 1485 -8ZM1759 0L1759 864L1939 864L1939 660Q1967 740 2046 740Q2120 740 2158 693Q2196 646 2196 564L2196 0L2021 0L2021 553Q2021 577 2010 592Q1999 607 1978 607Q1960 607 1949 591Q1939 576 1939 554L1939 0L1759 0Z" fill="#00203f" style=""></path></g></g><g transform="matrix(0.75,0,0,0.75,23.04,920.5761)"><g transform="matrix(1.024,0,0,-1.024,0,0)"><path d="M136 0L136 37Q189 37 195 68L195 308L58 670Q48 695 35 704Q23 713 -2 713L-2 750L233 750L233 713Q199 713 182 701Q166 690 173 671L278 375L376 669Q383 689 367 701Q351 713 316 713L316 750L486 750L486 713Q459 713 446 704Q433 695 424 669L307 324L307 80L308 80Q308 57 322 47Q336 37 368 37L368 0L136 0ZM718 555Q810 555 860 499Q910 443 910 341L910 199Q910 -15 718 -15Q624 -15 574 40Q524 95 524 199L524 341Q524 447 573 501Q623 555 718 555ZM718 24Q754 24 777 50Q800 77 800 119L800 420Q800 462 777 489Q754 516 718 516Q683 516 659 488Q636 461 636 420L636 119Q636 76 658 50Q681 24 718 24ZM1370 460L1370 204Q1370 -10 1203 -10Q1117 -10 1067 47Q1018 104 1018 204L1018 460Q1018 483 1004 493Q990 503 958 503L958 540L1188 540L1188 503Q1156 503 1142 493Q1128 483 1128 460L1128 136Q1128 90 1154 61Q1181 32 1224 32Q1270 32 1298 76Q1327 120 1327 189L1327 460Q1327 484 1314 493Q1301 503 1267 503L1267 540L1430 540L1430 503Q1396 503 1383 493Q1370 484 1370 460ZM1462 0L1462 37Q1494 37 1508 47Q1522 57 1522 80L1522 460Q1522 483 1508 493Q1494 503 1462 503L1462 540L1698 540Q1790 540 1833 498Q1876 456 1876 367Q1876 324 1854 292Q1832 261 1784 237Q1868 202 1868 112Q1868 81 1880 59Q1893 37 1911 37L1917 37L1917 0L1908 0Q1835 0 1800 27Q1766 54 1766 112Q1766 155 1744 186Q1722 218 1693 218L1672 218L1672 255L1698 255Q1731 255 1751 282Q1771 309 1771 353L1771 404Q1771 448 1751 474Q1731 501 1698 501L1632 501L1632 80Q1632 57 1646 47Q1660 37 1692 37L1692 0L1462 0ZM2144 0L2144 37Q2176 37 2190 47Q2204 57 2204 80L2204 670Q2204 693 2190 703Q2176 713 2144 713L2144 750L2439 750Q2462 750 2472 758Q2482 767 2485 788L2519 788L2563 607L2529 598Q2512 646 2495 670Q2479 694 2453 702Q2428 710 2383 710L2316 710L2316 415L2342 415Q2411 415 2411 487L2448 487L2448 303L2411 303Q2411 341 2394 358Q2378 375 2342 375L2316 375L2316 40L2424 40Q2469 40 2493 50Q2518 60 2530 88Q2542 116 2548 171L2583 171L2583 -31L2546 -31Q2542 -14 2526 -7Q2511 0 2477 0L2144 0ZM2589 506L2589 540L2821 540L2821 506Q2744 506 2770 461L2839 344L2922 469Q2933 486 2920 496Q2907 506 2875 506L2875 540L3041 540L3041 506Q3014 506 3000 497Q2986 489 2968 461L2864 300L3001 66Q3020 33 3063 33L3063 0L2831 0L2831 33Q2858 33 2875 46Q2892 59 2884 73L2802 214L2720 74Q2709 55 2721 44Q2733 33 2764 33L2764 0L2597 0L2597 33Q2624 33 2639 43Q2655 53 2671 80L2777 257L2652 471Q2641 491 2627 498Q2613 506 2589 506ZM3079 0L3079 37Q3111 37 3125 47Q3139 57 3139 80L3139 460Q3139 483 3125 493Q3111 503 3079 503L3079 540L3315 540Q3406 540 3449 497Q3493 455 3493 367Q3493 281 3449 239Q3406 198 3315 198L3289 198L3289 235L3315 235Q3348 235 3368 262Q3388 289 3388 333L3388 404Q3388 448 3368 474Q3348 501 3315 501L3249 501L3249 80Q3249 57 3263 47Q3277 37 3309 37L3309 0L3079 0ZM3535 0L3535 37Q3567 37 3581 47Q3595 57 3595 80L3595 460Q3595 483 3581 493Q3567 503 3535 503L3535 540L3831 540Q3857 540 3868 544Q3879 549 3880 559L3913 559L3954 397L3921 388Q3903 436 3886 460Q3870 485 3844 493Q3819 501 3775 501L3704 501L3704 286L3776 286Q3815 286 3815 338L3847 338L3847 186L3815 186Q3815 247 3776 247L3704 247L3704 39L3808 39Q3853 39 3877 49Q3902 59 3913 87Q3925 116 3931 171L3964 171L3964 -21L3930 -21Q3926 -9 3911 -5Q3896 0 3861 0L3535 0ZM4064 80L4064 460Q4064 483 4050 493Q4036 503 4004 503L4004 540L4172 540L4387 194L4387 460Q4387 484 4374 493Q4361 503 4327 503L4327 540L4491 540L4491 503Q4457 503 4444 493Q4431 484 4431 460L4431 0L4386 0L4108 450L4108 80Q4108 56 4121 46Q4134 37 4168 37L4168 0L4004 0L4004 37Q4038 37 4051 46Q4064 56 4064 80ZM4716 550Q4746 550 4762 546Q4779 543 4787 544Q4796 545 4801 558L4835 558L4876 397L4842 388Q4817 457 4791 483Q4766 509 4725 509Q4694 509 4671 487Q4649 466 4649 435Q4649 407 4663 388Q4677 370 4713 350L4821 291Q4864 268 4887 228Q4911 189 4911 139Q4911 98 4887 64Q4864 30 4824 10Q4785 -10 4736 -10Q4699 -10 4676 -3Q4653 4 4639 11Q4626 18 4616 18Q4593 18 4586 0L4551 0L4551 198L4585 198Q4599 119 4634 76Q4670 33 4721 33Q4744 33 4764 46Q4785 59 4798 79Q4811 99 4811 121Q4811 174 4741 213L4653 262Q4554 316 4554 402Q4554 441 4577 475Q4600 509 4637 529Q4674 550 4716 550ZM4967 0L4967 37Q4999 37 5013 47Q5027 57 5027 80L5027 460Q5027 483 5013 493Q4999 503 4967 503L4967 540L5263 540Q5289 540 5300 544Q5311 549 5312 559L5345 559L5386 397L5353 388Q5335 436 5318 460Q5302 485 5276 493Q5251 501 5207 501L5136 501L5136 286L5208 286Q5247 286 5247 338L5279 338L5279 186L5247 186Q5247 247 5208 247L5136 247L5136 39L5240 39Q5285 39 5309 49Q5334 59 5345 87Q5357 116 5363 171L5396 171L5396 -21L5362 -21Q5358 -9 5343 -5Q5328 0 5293 0L4967 0ZM5745 0L5745 37Q5777 37 5791 47Q5805 57 5805 80L5805 713L5792 713Q5752 713 5726 701Q5701 689 5683 657Q5666 626 5649 567L5612 576L5656 787L5690 787Q5694 765 5703 757Q5713 750 5736 750L5992 750Q6015 750 6025 758Q6035 766 6038 787L6072 787L6116 576L6079 567Q6062 626 6044 657Q6027 689 6002 701Q5977 713 5936 713L5917 713L5917 80Q5917 57 5931 47Q5945 37 5977 37L5977 0L5745 0ZM6148 0L6148 37Q6180 37 6194 47Q6208 57 6208 80L6208 460Q6208 483 6194 493Q6180 503 6148 503L6148 540L6384 540Q6476 540 6519 498Q6562 456 6562 367Q6562 324 6540 292Q6518 261 6470 237Q6554 202 6554 112Q6554 81 6566 59Q6579 37 6597 37L6603 37L6603 0L6594 0Q6521 0 6486 27Q6452 54 6452 112Q6452 155 6430 186Q6408 218 6379 218L6358 218L6358 255L6384 255Q6417 255 6437 282Q6457 309 6457 353L6457 404Q6457 448 6437 474Q6417 501 6384 501L6318 501L6318 80Q6318 57 6332 47Q6346 37 6378 37L6378 0L6148 0ZM6728 145L6707 81Q6700 61 6716 49Q6733 37 6767 37L6767 0L6600 0L6600 37Q6627 37 6641 47Q6655 57 6662 81L6812 544L6860 544L7016 79Q7025 53 7036 45Q7047 37 7078 37L7078 0L6848 0L6848 37Q6922 37 6909 78L6888 145L6728 145ZM6810 393L6741 183L6876 183L6810 393ZM7308 550Q7344 550 7360 547Q7376 544 7383 560L7417 560L7458 399L7424 390Q7406 437 7390 463Q7374 489 7354 499Q7335 510 7307 510Q7270 510 7245 479Q7220 449 7220 404L7220 131Q7220 85 7246 56Q7273 27 7316 27Q7362 27 7390 71Q7419 115 7419 184L7419 200L7460 200L7460 199Q7460 90 7419 37Q7379 -15 7295 -15Q7209 -15 7159 42Q7110 99 7110 199L7110 336Q7110 550 7308 550ZM7959 34L7978 34L7978 0L7959 0Q7883 0 7848 34Q7814 69 7814 143Q7814 190 7792 224Q7771 258 7742 258L7718 258L7718 295L7827 470Q7837 486 7823 496Q7810 506 7780 506L7780 540L7947 540L7947 506Q7919 506 7903 497Q7888 488 7872 462L7767 294Q7834 289 7875 248Q7916 207 7916 144Q7916 98 7928 66Q7941 34 7959 34ZM7508 0L7508 37Q7540 37 7554 47Q7568 57 7568 80L7568 460Q7568 483 7554 493Q7540 503 7508 503L7508 540L7738 540L7738 503Q7706 503 7692 493Q7678 483 7678 460L7678 80Q7678 57 7692 47Q7706 37 7738 37L7738 0L7508 0ZM7990 0L7990 37Q8022 37 8036 47Q8050 57 8050 80L8050 460Q8050 483 8036 493Q8022 503 7990 503L7990 540L8286 540Q8312 540 8323 544Q8334 549 8335 559L8368 559L8409 397L8376 388Q8358 436 8341 460Q8325 485 8299 493Q8274 501 8230 501L8159 501L8159 286L8231 286Q8270 286 8270 338L8302 338L8302 186L8270 186Q8270 247 8231 247L8159 247L8159 39L8263 39Q8308 39 8332 49Q8357 59 8368 87Q8380 116 8386 171L8419 171L8419 -21L8385 -21Q8381 -9 8366 -5Q8351 0 8316 0L7990 0ZM8459 0L8459 37Q8491 37 8505 47Q8519 57 8519 80L8519 460Q8519 483 8505 493Q8491 503 8459 503L8459 540L8695 540Q8787 540 8830 498Q8873 456 8873 367Q8873 324 8851 292Q8829 261 8781 237Q8865 202 8865 112Q8865 81 8877 59Q8890 37 8908 37L8914 37L8914 0L8905 0Q8832 0 8797 27Q8763 54 8763 112Q8763 155 8741 186Q8719 218 8690 218L8669 218L8669 255L8695 255Q8728 255 8748 282Q8768 309 8768 353L8768 404Q8768 448 8748 474Q8728 501 8695 501L8629 501L8629 80Q8629 57 8643 47Q8657 37 8689 37L8689 0L8459 0Z" fill="#00203f" style=""></path></g></g></g></svg>